<?xml version="1.0" encoding="utf-8"?>
<!-- Generator: Adobe Illustrator 24.1.2, SVG Export Plug-In . SVG Version: 6.00 Build 0)  -->
<svg version="1.1" baseProfile="basic" id="Calque_1"
	 xmlns="http://www.w3.org/2000/svg" xmlns:xlink="http://www.w3.org/1999/xlink" x="0px" y="0px" viewBox="0 0 612 792"
	 xml:space="preserve">
<style type="text/css">
	.st0{fill:#FFFFFF;stroke:#000000;stroke-width:5;stroke-miterlimit:10;}
</style>
<path class="st0" d="M419.64,229.34c0,0-56.29-17.05-118.16-25.82c5.48-32.51,13.37-63.33,24.27-91.38c0,0,29.85,75.86,59.69,79.59
	c0,0-23.63-33.58-19.9-42.28c3.73-8.7-21.14-33.58-22.38-95.75L298.39,11c0,0-36.98,46.37-43.87,188.37
	c-52.75-1.37-100.21,10.53-110.33,54.54c-22.31,97.06,98.48,172.09,123.57,186.5c0.19,1.39,0.37,2.77,0.56,4.17
	c-19.09,8.66-100.74,54.01-93.05,193.59c0,0,16.17-19.9,53.47-16.17c0,0-7.92-100.42,46.05-133.76
	c11.36,71.53,27.94,152.94,51.33,245.42l24.67,33.91c0,0-35.94-131.69-52-288.51c17.3-3.25,38.79-1.26,65.5,8.42
	c0,0,24.87-19.7,0-60.73c0,0-32.92-1.46-70.99-15.8c-3.63-63.26-3.01-128.03,5.2-187.97c37.67-0.42,70.06,4.55,70.06,4.55
	l-17.33,19.9C351.25,247.45,394.36,225.72,419.64,229.34z M262.37,396.57c-31.06-17.6-60.69-45.37-74.65-89.19
	c-16.69-52.36,20.79-73.36,65.89-80.8C252.7,273.57,254.99,329.77,262.37,396.57z"/>
</svg>
